<?xml version="1.0" standalone="no"?>
<!DOCTYPE svg PUBLIC "-//W3C//DTD SVG 20010904//EN"
 "http://www.w3.org/TR/2001/REC-SVG-20010904/DTD/svg10.dtd">
<svg version="1.0" xmlns="http://www.w3.org/2000/svg"
 width="960.000000pt" height="960.000000pt" viewBox="0 0 960.000000 960.000000"
 preserveAspectRatio="xMidYMid meet">
<metadata>
Created by potrace 1.14, written by Peter Selinger 2001-2017
</metadata>
<g transform="translate(0.000000,960.000000) scale(0.100000,-0.100000)"
fill="#000000" stroke="none">
<path d="M0 4800 l0 -4800 4800 0 4800 0 0 4800 0 4800 -4800 0 -4800 0 0
-4800z m3348 3051 c126 -27 263 -73 364 -124 317 -159 578 -444 708 -771 50
-128 79 -261 105 -493 39 -343 60 -476 99 -638 120 -489 371 -786 791 -935
235 -82 402 -110 1006 -165 396 -35 693 -169 949 -425 208 -207 334 -441 402
-742 33 -146 33 -434 0 -585 -130 -598 -591 -1043 -1187 -1145 -101 -17 -147
-19 -290 -15 -185 6 -261 19 -422 72 -388 129 -711 427 -875 807 -53 123 -78
222 -138 548 -81 438 -142 659 -238 860 -196 411 -525 636 -1107 759 -83 18
-287 54 -455 81 -336 54 -412 72 -545 125 -176 71 -318 162 -458 295 -443 419
-577 1058 -341 1629 158 381 498 693 894 819 87 28 207 54 300 66 83 10 347
-3 438 -23z m3757 -98 c252 -49 482 -188 637 -385 143 -182 213 -351 239 -587
35 -301 -85 -640 -304 -863 -365 -373 -928 -439 -1376 -161 -95 59 -261 223
-326 322 -61 93 -119 227 -148 340 -18 72 -22 114 -22 261 0 199 16 282 84
441 176 407 603 673 1046 652 50 -2 126 -11 170 -20z m-4058 -3842 c318 -79
577 -279 719 -554 87 -169 126 -327 126 -512 0 -501 -329 -928 -817 -1061 -91
-25 -116 -27 -275 -28 -160 0 -184 3 -275 28 -196 53 -392 169 -524 311 -374
402 -396 1007 -51 1440 157 197 408 345 650 385 41 6 82 13 90 15 44 11 282
-5 357 -24z"/>
</g>
</svg>
